<svg width="31" height="31" viewBox="0 0 31 31" fill="none" xmlns="http://www.w3.org/2000/svg">
<g clip-path="url(#clip0_7_88)">
<path d="M15.2276 0.799902C6.8153 0.799902 0 7.62091 0 16.0275C0 22.759 4.3627 28.4646 10.409 30.4775C11.1732 30.6212 11.4492 30.1501 11.4492 29.7428C11.4492 29.3811 11.4407 28.4246 11.435 27.155C7.19694 28.0725 6.30422 25.1079 6.30422 25.1079C5.61041 23.3529 4.6092 22.8818 4.6092 22.8818C3.2311 21.9406 4.71865 21.9605 4.71865 21.9605C6.24521 22.0643 7.04847 23.5261 7.04847 23.5261C8.40658 25.8559 10.6117 25.1821 11.4845 24.79C11.6177 23.8088 12.0146 23.134 12.4466 22.7581C9.06612 22.3764 5.51143 21.0678 5.51143 15.2328C5.51143 13.5663 6.1015 12.2092 7.07702 11.1432C6.90857 10.7616 6.39273 9.21029 7.21121 7.11269C7.21121 7.11269 8.48557 6.7063 11.3988 8.67447C12.6398 8.33695 13.9197 8.16384 15.2057 8.15959C16.5 8.16815 17.7934 8.33756 19.0126 8.67447C21.9087 6.7063 23.1821 7.11269 23.1821 7.11269C23.9996 9.21029 23.4838 10.7606 23.3353 11.1432C24.3013 12.2092 24.8914 13.5673 24.8914 15.2328C24.8914 21.0811 21.3319 22.3707 17.9476 22.7429C18.4768 23.1987 18.9726 24.1362 18.9726 25.559C18.9726 27.5957 18.9536 29.2365 18.9536 29.7323C18.9536 30.1282 19.2201 30.6041 20.0043 30.4509C26.0953 28.4589 30.4533 22.7486 30.4533 16.0265C30.4533 7.61996 23.638 0.79895 15.2257 0.79895L15.2276 0.799902Z" fill="#FF512F"/>
</g>
<defs>
<clipPath id="clip0_7_88">
<rect width="30.4552" height="30.4552" fill="white" transform="translate(0 0.423096)"/>
</clipPath>
</defs>
</svg>
