<svg width="26" height="26" viewBox="0 0 26 26" fill="none" xmlns="http://www.w3.org/2000/svg">
<path d="M16.5181 17.4525L18.3381 15.6325C18.5833 15.3904 18.8934 15.2247 19.2309 15.1555C19.5684 15.0862 19.9187 15.1165 20.2394 15.2425L22.4575 16.1281C22.7815 16.2597 23.0594 16.4842 23.256 16.7733C23.4527 17.0625 23.5593 17.4034 23.5625 17.7531V21.8156C23.5606 22.0535 23.5106 22.2886 23.4155 22.5066C23.3204 22.7246 23.1821 22.9212 23.009 23.0844C22.836 23.2476 22.6317 23.3741 22.4084 23.4563C22.1852 23.5384 21.9476 23.5746 21.71 23.5625C6.16688 22.5956 3.03063 9.43313 2.4375 4.39563C2.40997 4.14825 2.43513 3.89785 2.51132 3.66089C2.58751 3.42394 2.71301 3.2058 2.87956 3.02083C3.04611 2.83585 3.24993 2.68824 3.47763 2.5877C3.70533 2.48716 3.95173 2.43598 4.20063 2.4375H8.125C8.4752 2.43854 8.81707 2.54432 9.10666 2.74124C9.39625 2.93816 9.6203 3.21721 9.75 3.5425L10.6356 5.76063C10.7658 6.08 10.7991 6.43065 10.7311 6.76879C10.6632 7.10692 10.4972 7.41756 10.2538 7.66188L8.43375 9.48188C8.43375 9.48188 9.48188 16.575 16.5181 17.4525Z" fill="#FF512F"/>
</svg>
