<svg width="40" height="40" viewBox="0 0 40 40" fill="none" xmlns="http://www.w3.org/2000/svg">
<path d="M35.0363 13.5028C35.0199 12.2714 34.7894 11.0522 34.355 9.89986C33.9784 8.92784 33.4032 8.04507 32.666 7.30796C31.9289 6.57085 31.0462 5.9956 30.0741 5.61896C28.9366 5.19194 27.7348 4.96104 26.52 4.9361C24.9559 4.86619 24.46 4.84668 20.4897 4.84668C16.5193 4.84668 16.0104 4.84668 14.4577 4.9361C13.2435 4.96123 12.0423 5.19212 10.9052 5.61896C9.93306 5.99533 9.05016 6.57049 8.31301 7.30764C7.57586 8.04478 7.0007 8.92769 6.62434 9.89986C6.19646 11.0366 5.96606 12.238 5.9431 13.4524C5.87319 15.0181 5.85205 15.514 5.85205 19.4843C5.85205 23.4547 5.85205 23.9619 5.9431 25.5163C5.96749 26.7324 6.19673 27.9323 6.62434 29.072C7.00134 30.0439 7.57692 30.9265 8.31431 31.6633C9.05171 32.4001 9.93469 32.975 10.9069 33.3513C12.0408 33.7955 13.2422 34.0429 14.4594 34.0829C16.0251 34.1528 16.521 34.174 20.4913 34.174C24.4617 34.174 24.9706 34.174 26.5233 34.0829C27.738 34.059 28.9399 33.8287 30.0774 33.4017C31.0492 33.0246 31.9317 32.4492 32.6688 31.7122C33.4058 30.9751 33.9812 30.0926 34.3583 29.1208C34.7859 27.9827 35.0151 26.7828 35.0395 25.565C35.1094 24.001 35.1306 23.5051 35.1306 19.5331C35.1273 15.5627 35.1273 15.0587 35.0363 13.5028ZM20.4799 26.9925C16.3275 26.9925 12.9636 23.6286 12.9636 19.4762C12.9636 15.3237 16.3275 11.9598 20.4799 11.9598C22.4734 11.9598 24.3852 12.7517 25.7948 14.1613C27.2044 15.5709 27.9963 17.4827 27.9963 19.4762C27.9963 21.4697 27.2044 23.3815 25.7948 24.7911C24.3852 26.2006 22.4734 26.9925 20.4799 26.9925ZM28.2955 13.4345C28.0652 13.4347 27.8372 13.3895 27.6245 13.3015C27.4117 13.2135 27.2184 13.0844 27.0556 12.9216C26.8929 12.7588 26.7638 12.5655 26.6758 12.3528C26.5877 12.14 26.5426 11.912 26.5428 11.6818C26.5428 11.4517 26.5881 11.2239 26.6761 11.0114C26.7642 10.7988 26.8932 10.6057 27.0559 10.443C27.2186 10.2804 27.4117 10.1513 27.6242 10.0633C27.8368 9.97525 28.0646 9.92994 28.2946 9.92994C28.5247 9.92994 28.7525 9.97525 28.965 10.0633C29.1776 10.1513 29.3707 10.2804 29.5334 10.443C29.6961 10.6057 29.8251 10.7988 29.9132 11.0114C30.0012 11.2239 30.0465 11.4517 30.0465 11.6818C30.0465 12.6508 29.2628 13.4345 28.2955 13.4345Z" fill="#FF512F"/>
<path d="M20.4799 24.3587C23.1764 24.3587 25.3624 22.1727 25.3624 19.4762C25.3624 16.7797 23.1764 14.5938 20.4799 14.5938C17.7834 14.5938 15.5975 16.7797 15.5975 19.4762C15.5975 22.1727 17.7834 24.3587 20.4799 24.3587Z" fill="#FF512F"/>
</svg>
