<svg width="26" height="26" viewBox="0 0 26 26" fill="none" xmlns="http://www.w3.org/2000/svg">
<path d="M22.75 4.87497H3.24999C2.81902 4.87497 2.40569 5.04617 2.10094 5.35092C1.7962 5.65567 1.62499 6.06899 1.62499 6.49997V19.5C1.62499 19.9309 1.7962 20.3443 2.10094 20.649C2.40569 20.9538 2.81902 21.125 3.24999 21.125H22.75C23.181 21.125 23.5943 20.9538 23.899 20.649C24.2038 20.3443 24.375 19.9309 24.375 19.5V6.49997C24.375 6.06899 24.2038 5.65567 23.899 5.35092C23.5943 5.04617 23.181 4.87497 22.75 4.87497ZM20.9625 6.49997L13 12.0087L5.03749 6.49997H20.9625ZM3.24999 19.5V7.23934L12.5369 13.6662C12.6729 13.7606 12.8345 13.8111 13 13.8111C13.1655 13.8111 13.3271 13.7606 13.4631 13.6662L22.75 7.23934V19.5H3.24999Z" fill="#FF512F"/>
</svg>
