<svg width="31" height="31" viewBox="0 0 31 31" fill="none" xmlns="http://www.w3.org/2000/svg">
<path fill-rule="evenodd" clip-rule="evenodd" d="M29.355 5.89986C29.7894 7.05223 30.0199 8.27138 30.0363 9.50277C30.1269 11.0516 30.1273 11.5581 30.1305 15.4786L30.1306 15.5331C30.1306 19.5051 30.1094 20.001 30.0395 21.565C30.0151 22.7828 29.7859 23.9827 29.3583 25.1208C28.9812 26.0926 28.4058 26.9751 27.6688 27.7122C26.9317 28.4492 26.0492 29.0246 25.0774 29.4017C23.9399 29.8287 22.738 30.059 21.5233 30.0829C19.9706 30.174 19.4617 30.174 15.4913 30.174C11.521 30.174 11.0251 30.1528 9.45937 30.0829C8.2422 30.0429 7.04079 29.7955 5.90686 29.3513C4.93469 28.975 4.05171 28.4001 3.31431 27.6633C2.57692 26.9265 2.00134 26.0439 1.62434 25.072C1.19673 23.9323 0.967487 22.7324 0.943099 21.5163C0.852051 19.9619 0.852051 19.4547 0.852051 15.4843C0.852051 11.514 0.873187 11.0181 0.943099 9.45237C0.966061 8.23803 1.19646 7.03655 1.62434 5.89986C2.0007 4.92769 2.57586 4.04478 3.31301 3.30764C4.05016 2.57049 4.93306 1.99533 5.90523 1.61896C7.04227 1.19212 8.24348 0.961228 9.45774 0.936102C11.0104 0.84668 11.5193 0.84668 15.4897 0.84668C19.46 0.84668 19.9559 0.86619 21.52 0.936102C22.7348 0.961045 23.9366 1.19194 25.0741 1.61896C26.0462 1.9956 26.9289 2.57085 27.666 3.30796C28.4032 4.04507 28.9784 4.92784 29.355 5.89986ZM7.96357 15.4762C7.96357 19.6286 11.3275 22.9925 15.4799 22.9925C17.4734 22.9925 19.3852 22.2006 20.7948 20.7911C22.2044 19.3815 22.9963 17.4697 22.9963 15.4762C22.9963 13.4827 22.2044 11.5709 20.7948 10.1613C19.3852 8.75173 17.4734 7.95983 15.4799 7.95983C11.3275 7.95983 7.96357 11.3237 7.96357 15.4762ZM22.6245 9.30151C22.8372 9.38951 23.0652 9.4347 23.2955 9.43448C24.2628 9.43448 25.0465 8.65082 25.0465 7.6818C25.0465 7.45175 25.0012 7.22394 24.9132 7.01139C24.8251 6.79885 24.6961 6.60572 24.5334 6.44305C24.3707 6.28037 24.1776 6.15133 23.965 6.06329C23.7525 5.97525 23.5247 5.92994 23.2946 5.92994C23.0646 5.92994 22.8368 5.97525 22.6242 6.06329C22.4117 6.15133 22.2186 6.28037 22.0559 6.44305C21.8932 6.60572 21.7642 6.79885 21.6761 7.01139C21.5881 7.22394 21.5428 7.45175 21.5428 7.6818C21.5426 7.91203 21.5877 8.14004 21.6758 8.35278C21.7638 8.56552 21.8929 8.75882 22.0556 8.92161C22.2184 9.08441 22.4117 9.2135 22.6245 9.30151ZM20.3624 15.4762C20.3624 18.1727 18.1764 20.3587 15.4799 20.3587C12.7834 20.3587 10.5975 18.1727 10.5975 15.4762C10.5975 12.7797 12.7834 10.5938 15.4799 10.5938C18.1764 10.5938 20.3624 12.7797 20.3624 15.4762Z" fill="#FF512F"/>
</svg>
