<svg width="31" height="31" viewBox="0 0 31 31" fill="none" xmlns="http://www.w3.org/2000/svg">
<path fill-rule="evenodd" clip-rule="evenodd" d="M1.61377 4.02438C1.61377 3.4058 1.8595 2.81255 2.2969 2.37515C2.7343 1.93775 3.32755 1.69202 3.94613 1.69202H27.1961C27.5027 1.69152 27.8063 1.75149 28.0896 1.86849C28.373 1.98549 28.6305 2.15723 28.8474 2.37388C29.0642 2.59053 29.2363 2.84782 29.3536 3.13104C29.4709 3.41425 29.5312 3.71783 29.531 4.02438V27.2744C29.5313 27.581 29.4712 27.8846 29.3541 28.168C29.2369 28.4513 29.0651 28.7088 28.8483 28.9257C28.6316 29.1425 28.3742 29.3145 28.0909 29.4318C27.8076 29.5491 27.504 29.6094 27.1974 29.6093H3.94613C3.63973 29.6093 3.33634 29.5489 3.05328 29.4316C2.77022 29.3143 2.51305 29.1424 2.29645 28.9257C2.07986 28.709 1.90808 28.4517 1.79095 28.1686C1.67381 27.8855 1.6136 27.582 1.61377 27.2756V4.02438ZM12.6639 12.3361H16.4442V14.2345C16.9898 13.1432 18.3857 12.161 20.4833 12.161C24.5046 12.161 25.4576 14.3347 25.4576 18.3231V25.711H21.3881V19.2317C21.3881 16.9602 20.8424 15.6786 19.4567 15.6786C17.5342 15.6786 16.7348 17.0605 16.7348 19.2317V25.711H12.6639V12.3361ZM5.68461 25.5371H9.75545V12.161H5.68461V25.5359V25.5371ZM10.3379 7.79828C10.3456 8.14683 10.2836 8.4934 10.1555 8.81766C10.0274 9.14192 9.83584 9.43732 9.59205 9.68654C9.34826 9.93576 9.05714 10.1338 8.73578 10.269C8.41442 10.4042 8.0693 10.4738 7.72067 10.4738C7.37203 10.4738 7.02691 10.4042 6.70555 10.269C6.38419 10.1338 6.09308 9.93576 5.84928 9.68654C5.60549 9.43732 5.41393 9.14192 5.28585 8.81766C5.15777 8.4934 5.09575 8.14683 5.10343 7.79828C5.11849 7.11412 5.40085 6.46306 5.89004 5.98453C6.37922 5.506 7.03634 5.23804 7.72067 5.23804C8.40499 5.23804 9.06211 5.506 9.55129 5.98453C10.0405 6.46306 10.3228 7.11412 10.3379 7.79828Z" fill="#FF512F"/>
</svg>
