<svg width="26" height="26" viewBox="0 0 26 26" fill="none" xmlns="http://www.w3.org/2000/svg">
<path fill-rule="evenodd" clip-rule="evenodd" d="M12.2319 23.5148L13 22.75L12.2319 23.5148ZM13 22.75L13.767 23.5148C13.6663 23.6158 13.5467 23.696 13.415 23.7507C13.2833 23.8054 13.1421 23.8336 12.9994 23.8336C12.8568 23.8336 12.7156 23.8054 12.5839 23.7507C12.4522 23.696 12.3325 23.6158 12.2319 23.5148L12.2254 23.5072L12.207 23.4888L12.1398 23.4205C11.7579 23.0272 11.3823 22.6277 11.0131 22.2224C10.0862 21.2067 9.1987 20.1558 8.35248 19.072C7.38615 17.8262 6.39815 16.4179 5.6474 15.0269C4.9129 13.663 4.33331 12.1853 4.33331 10.8333C4.33331 5.91604 8.22465 2.16663 13 2.16663C17.7753 2.16663 21.6666 5.91604 21.6666 10.8333C21.6666 12.1853 21.0871 13.663 20.3526 15.0258C19.6018 16.419 18.6149 17.8262 17.6475 19.072C16.4638 20.5883 15.1995 22.0399 13.8601 23.4205L13.793 23.4888L13.7746 23.5072L13.7681 23.5137L13 22.75ZM13 14.0833C13.8619 14.0833 14.6886 13.7409 15.2981 13.1314C15.9076 12.5219 16.25 11.6952 16.25 10.8333C16.25 9.97134 15.9076 9.14469 15.2981 8.5352C14.6886 7.9257 13.8619 7.58329 13 7.58329C12.138 7.58329 11.3114 7.9257 10.7019 8.5352C10.0924 9.14469 9.74998 9.97134 9.74998 10.8333C9.74998 11.6952 10.0924 12.5219 10.7019 13.1314C11.3114 13.7409 12.138 14.0833 13 14.0833Z" fill="#FF512F"/>
</svg>
